<svg xmlns="http://www.w3.org/2000/svg">
    <symbol viewBox="0 0 130 61" id="logo">
        <path d="M4.95672 0H0V35.7986H4.95672V22.5177C4.95672 20.2709 5.51557 18.4984 6.63326 17.2502C7.75095 16.002 9.2817 15.353 11.1769 15.353C12.8049 15.353 14.1655 15.9521 15.2589 17.1004C16.3523 18.2738 16.9112 19.7466 16.9112 21.5191V35.8236H21.8922V21.5191C21.8922 18.2238 20.9932 15.6276 19.1951 13.6804C17.3971 11.7332 15.0402 10.7596 12.1731 10.7596C11.347 10.7596 10.5209 10.8594 9.71906 11.0841C8.89294 11.3088 8.2369 11.5584 7.70235 11.833C7.16781 12.1076 6.65756 12.4072 6.1959 12.7567C5.73424 13.1062 5.41838 13.3558 5.27259 13.5056C5.1268 13.6554 5.00532 13.7552 4.95672 13.8301V0Z" fill="#F0145A"/>
        <path d="M32.9726 0H27.8628V35.7689H32.9726V0Z" fill="#323264"/>
        <path d="M63.1114 25.293L63.3669 22.7381C63.3669 19.3145 62.2428 16.453 59.9433 14.1536C57.6439 11.8541 54.7824 10.73 51.3588 10.73C47.9352 10.73 44.9715 11.9563 42.5188 14.4091C40.0661 16.8618 38.8397 19.7744 38.8397 23.2491C38.8397 26.826 40.1172 29.8919 42.621 32.4468C45.1248 35.0017 48.1396 36.2792 51.6143 36.2792C52.9429 36.2792 54.1692 36.0748 55.3956 35.7171C56.6219 35.3083 57.6439 34.8995 58.3593 34.4907C59.1258 34.0308 59.8922 33.5199 60.5565 32.9578C61.2208 32.3957 61.6807 31.9869 61.8851 31.7314C62.0895 31.4759 62.2428 31.3226 62.345 31.1693L59.0236 27.8479L58.2571 28.8188C57.7461 29.432 56.8774 30.0452 55.6511 30.7095C54.3736 31.3737 53.0451 31.6803 51.6143 31.6803C49.6215 31.6803 47.9352 31.0671 46.5045 29.7897C45.0737 28.5122 44.205 27.0304 43.9495 25.293H63.1114ZM51.3588 15.0733C53.2495 15.0733 54.7824 15.6354 56.0599 16.7085C57.2862 17.8327 58.0527 19.2123 58.3593 20.9497H44.1539C44.6138 19.2123 45.4314 17.8327 46.7089 16.7085C47.9352 15.6354 49.5193 15.0733 51.3588 15.0733Z" fill="#323264"/>
        <path d="M86.9429 34.2863C86.9429 36.5347 86.2786 38.3742 84.8989 39.805C83.5704 41.1846 81.8841 41.9 79.7891 41.9C78.8693 41.9 77.9496 41.7467 77.0809 41.4912C76.2122 41.2357 75.5479 40.9291 74.9859 40.5714C74.4238 40.2137 73.9128 39.856 73.4018 39.3962C72.9419 38.9363 72.6353 38.6297 72.482 38.4764C72.3287 38.3231 72.2265 38.1698 72.1244 38.0676L68.803 41.389L69.2117 41.9C69.4672 42.2577 69.9271 42.7176 70.5403 43.2285C71.1535 43.6884 71.8689 44.1994 72.6864 44.7104C73.504 45.1703 74.526 45.5791 75.8034 45.9368C77.0809 46.2944 78.4094 46.4988 79.7891 46.4988C83.2638 46.4988 86.1253 45.3236 88.5269 42.9731C90.8774 40.5714 92.0527 37.7099 92.0527 34.2352V11.241H86.9429V13.7959L86.0742 13.0294C85.5121 12.5184 84.6434 12.0074 83.4171 11.4965C82.1907 10.9855 80.8622 10.73 79.5336 10.73C76.4166 10.73 73.7595 11.9052 71.4601 14.3069C69.1606 16.7085 68.0365 19.57 68.0365 22.9936C68.0365 26.4172 69.1606 29.2787 71.4601 31.6803C73.7595 34.0819 76.4166 35.2572 79.5336 35.2572C80.4023 35.2572 81.2199 35.155 82.0885 34.9506C82.9061 34.6951 83.5704 34.4396 84.1325 34.1841C84.6945 33.9286 85.2055 33.622 85.6654 33.2644C86.1253 32.9067 86.483 32.6512 86.5852 32.549L86.9429 32.1913V34.2863ZM73.1463 22.9936C73.1463 20.8475 73.8106 19.059 75.1903 17.5772C76.5699 16.0953 78.2051 15.3288 80.0446 15.3288C81.8841 15.3288 83.5193 16.0953 84.8989 17.5772C86.2275 19.059 86.9429 20.8475 86.9429 22.9936C86.9429 25.1397 86.2275 26.9282 84.8989 28.41C83.5193 29.8919 81.8841 30.6583 80.0446 30.6583C78.2051 30.6583 76.5699 29.8919 75.1903 28.41C73.8106 26.9282 73.1463 25.1397 73.1463 22.9936Z" fill="#323264"/>
        <path d="M118.724 35.7682V19.9277C118.724 17.3217 117.753 15.1244 115.863 13.3871C113.972 11.5987 111.519 10.73 108.504 10.73C107.329 10.73 106.154 10.8833 105.03 11.1899C103.906 11.5476 102.986 11.9052 102.321 12.314C101.657 12.7228 100.993 13.1827 100.38 13.7448C99.7666 14.2558 99.4089 14.6135 99.2045 14.8179C99.0512 15.0222 98.8979 15.1755 98.7957 15.3288L102.117 18.6502L102.781 17.7816C103.19 17.2195 103.906 16.7085 104.979 16.1464C106.052 15.5843 107.227 15.3288 108.504 15.3288C109.986 15.3288 111.213 15.7887 112.183 16.6574C113.154 17.5261 113.614 18.6502 113.614 19.9277L104.672 21.4606C102.475 21.8183 100.686 22.687 99.46 24.0667C98.1825 25.4463 97.5182 27.1326 97.5182 29.1254C97.5182 31.016 98.3358 32.6512 99.971 34.0819C101.657 35.5638 103.701 36.2792 106.205 36.2792C107.074 36.2792 107.891 36.177 108.709 35.9215C109.577 35.7171 110.242 35.4616 110.804 35.2061C111.366 34.9506 111.877 34.644 112.337 34.2863C112.797 33.9287 113.103 33.6732 113.308 33.571C113.461 33.4177 113.563 33.2644 113.614 33.2133V35.7682H118.724ZM106.971 31.6803C105.643 31.6803 104.57 31.3737 103.803 30.7606C102.986 30.1474 102.628 29.432 102.628 28.6144C102.628 27.7457 102.884 26.9793 103.446 26.4172C104.008 25.8551 104.774 25.4463 105.694 25.293L113.614 24.0156V24.5265C113.614 26.826 113.052 28.5633 111.877 29.8408C110.702 31.0671 109.066 31.6803 106.971 31.6803Z" fill="#323264"/>
        <path d="M130 0H124.89V35.7689H130V0Z" fill="#323264"/>
        <path d="M0 53.1185H1.59915V58.7253H5.06396V60.0283H0V53.1185Z" fill="#323264"/>
        <path d="M15.5016 58.5477H12.2934L11.6814 60.0283H10.0428L13.1226 53.1185H14.702L17.7917 60.0283H16.1136L15.5016 58.5477ZM14.9982 57.3335L13.9025 54.688L12.8067 57.3335H14.9982Z" fill="#323264"/>
        <path d="M33.5121 53.1185L31.2516 60.0283H29.534L28.0138 55.3494L26.4443 60.0283H24.7366L22.4662 53.1185H24.1245L25.6842 57.9751L27.313 53.1185H28.7937L30.3731 58.0146L31.9821 53.1185H33.5121Z" fill="#323264"/>
        <path d="M50.5232 60.1468C49.819 60.1468 49.1807 59.9954 48.6082 59.6927C48.0422 59.3834 47.5947 58.959 47.2657 58.4193C46.9432 57.8731 46.782 57.2578 46.782 56.5734C46.782 55.889 46.9432 55.277 47.2657 54.7373C47.5947 54.1911 48.0422 53.7667 48.6082 53.464C49.1807 53.1547 49.8223 53 50.5331 53C51.1319 53 51.6716 53.1053 52.152 53.3159C52.6389 53.5265 53.047 53.8292 53.376 54.224L52.3494 55.1717C51.8821 54.6321 51.303 54.3622 50.612 54.3622C50.1843 54.3622 49.8026 54.4577 49.467 54.6485C49.1313 54.8328 48.8681 55.0927 48.6773 55.4283C48.493 55.764 48.4009 56.1456 48.4009 56.5734C48.4009 57.0012 48.493 57.3828 48.6773 57.7185C48.8681 58.0541 49.1313 58.3173 49.467 58.5082C49.8026 58.6924 50.1843 58.7846 50.612 58.7846C51.303 58.7846 51.8821 58.5115 52.3494 57.9653L53.376 58.9129C53.047 59.3143 52.6389 59.6203 52.152 59.8309C51.665 60.0415 51.1221 60.1468 50.5232 60.1468Z" fill="#323264"/>
        <path d="M62.5933 60.1468C61.876 60.1468 61.2278 59.9922 60.6487 59.6829C60.0761 59.3736 59.6253 58.9491 59.2963 58.4095C58.9738 57.8632 58.8126 57.2512 58.8126 56.5734C58.8126 55.8956 58.9738 55.2868 59.2963 54.7472C59.6253 54.201 60.0761 53.7733 60.6487 53.464C61.2278 53.1547 61.876 53 62.5933 53C63.3106 53 63.9555 53.1547 64.5281 53.464C65.1006 53.7733 65.5514 54.201 65.8804 54.7472C66.2095 55.2868 66.374 55.8956 66.374 56.5734C66.374 57.2512 66.2095 57.8632 65.8804 58.4095C65.5514 58.9491 65.1006 59.3736 64.5281 59.6829C63.9555 59.9922 63.3106 60.1468 62.5933 60.1468ZM62.5933 58.7846C63.0013 58.7846 63.3698 58.6924 63.6989 58.5082C64.0279 58.3173 64.2846 58.0541 64.4688 57.7185C64.6597 57.3828 64.7551 57.0012 64.7551 56.5734C64.7551 56.1456 64.6597 55.764 64.4688 55.4283C64.2846 55.0927 64.0279 54.8328 63.6989 54.6485C63.3698 54.4577 63.0013 54.3622 62.5933 54.3622C62.1853 54.3622 61.8168 54.4577 61.4877 54.6485C61.1587 54.8328 60.8987 55.0927 60.7079 55.4283C60.5236 55.764 60.4315 56.1456 60.4315 56.5734C60.4315 57.0012 60.5236 57.3828 60.7079 57.7185C60.8987 58.0541 61.1587 58.3173 61.4877 58.5082C61.8168 58.6924 62.1853 58.7846 62.5933 58.7846Z" fill="#323264"/>
        <path d="M78.7995 60.0283L78.7896 55.8824L76.7561 59.2979H76.0355L74.0119 55.9713V60.0283H72.5115V53.1185H73.8342L76.4205 57.4125L78.9673 53.1185H80.2802L80.2999 60.0283H78.7995Z" fill="#323264"/>
        <path d="M89.8659 53.1185C90.478 53.1185 91.0077 53.2205 91.4552 53.4245C91.9093 53.6285 92.2581 53.918 92.5016 54.2931C92.7451 54.6682 92.8668 55.1125 92.8668 55.6258C92.8668 56.1325 92.7451 56.5767 92.5016 56.9584C92.2581 57.3335 91.9093 57.623 91.4552 57.8271C91.0077 58.0245 90.478 58.1232 89.8659 58.1232H88.4741V60.0283H86.8749V53.1185H89.8659ZM89.7771 56.8202C90.2575 56.8202 90.6227 56.7182 90.8728 56.5142C91.1229 56.3036 91.2479 56.0074 91.2479 55.6258C91.2479 55.2375 91.1229 54.9414 90.8728 54.7373C90.6227 54.5268 90.2575 54.4215 89.7771 54.4215H88.4741V56.8202H89.7771Z" fill="#323264"/>
        <path d="M103.148 58.5477H99.9396L99.3276 60.0283H97.6889L100.769 53.1185H102.348L105.438 60.0283H103.76L103.148 58.5477ZM102.644 57.3335L101.549 54.688L100.453 57.3335H102.644Z" fill="#323264"/>
        <path d="M117.428 53.1185V60.0283H116.115L112.67 55.8331V60.0283H111.09V53.1185H112.413L115.848 57.3137V53.1185H117.428Z" fill="#323264"/>
        <path d="M127.315 57.5803V60.0283H125.716V57.5605L123.041 53.1185H124.739L126.585 56.1884L128.43 53.1185H130L127.315 57.5803Z" fill="#323264"/>
    </symbol>
    <symbol viewBox="0 0 12 26" id="slesh">
        <path fill-rule="evenodd" clip-rule="evenodd" d="M8.72827 0H11.9505L3.55574 26H0.333496L8.72827 0Z" fill="#F0145A"/>
    </symbol>
    <symbol viewBox="0 0 24 24" id="facebook_header">
        <path d="M24 12.0733C24 5.40541 18.6274 0 12 0C5.37258 0 0 5.40541 0 12.0733C0 18.0995 4.38823 23.0943 10.125 24V15.5633H7.07813V12.0733H10.125V9.41343C10.125 6.38755 11.9165 4.71615 14.6576 4.71615C15.9705 4.71615 17.3438 4.95195 17.3438 4.95195V7.92313H15.8306C14.3399 7.92313 13.875 8.85379 13.875 9.80857V12.0733H17.2031L16.6711 15.5633H13.875V24C19.6118 23.0943 24 18.0995 24 12.0733Z" fill="#ffffff"/>
    </symbol>
    <symbol viewBox="0 0 92 92" id="second_icon">
        <path d="M37.7339 42.125C38.8379 42.125 39.7339 41.229 39.7339 40.125V32.325C39.7339 28.838 42.5709 26 46.0579 26C49.5449 26 52.3829 28.838 52.3829 32.325V40.125C52.3829 41.229 53.2779 42.125 54.3829 42.125C55.4869 42.125 56.3829 41.229 56.3829 40.125V32.325C56.3839 26.632 51.7519 22 46.0579 22C40.3659 22 35.7339 26.632 35.7339 32.325V40.125C35.7339 41.229 36.6299 42.125 37.7339 42.125Z" fill="url(#paint0_linear_22728_12612)"/>
        <path d="M69 37.6309H58.384V40.1249C58.384 42.3309 56.59 44.1249 54.384 44.1249C52.178 44.1249 50.384 42.3309 50.384 40.1249V37.6309H41.735V40.1249C41.735 42.3309 39.941 44.1249 37.735 44.1249C35.529 44.1249 33.735 42.3309 33.735 40.1249V37.6309H23C22.448 37.6309 22.107 38.0659 22.238 38.6019L29.236 67.0989C29.658 68.7009 31.344 69.9999 33 69.9999H59C60.658 69.9999 62.342 68.7009 62.766 67.0989L69.762 38.6019C69.893 38.0649 69.553 37.6309 69 37.6309Z" fill="url(#paint1_linear_22728_12612)"/>
        <path d="M42.6001 48.4C42.6001 47.6265 43.2266 47 44.0001 47C44.7736 47 45.4001 47.6265 45.4001 48.4V55.35L45.4001 54C45.4001 53.2265 46.0266 52.6 46.8001 52.6C47.5736 52.6 48.2001 53.2265 48.2001 54V55.6764C48.2127 54.9141 48.8346 53.3 49.6 53.3C50.3731 53.3 50.9999 53.9268 51 54.7C51 54.7 51.0411 55.7411 51.1332 55.8033C51.3572 55.3285 51.8402 54 52.4 54C53.1732 54 53.8 54.6268 53.8 55.4V62.4C53.8 63.9463 52.5463 65.2 51 65.2H46.3198C44.8344 65.2 43.4099 64.6099 42.3599 63.5599L40.15 61.35L37 59.9402C37.0051 58.6033 38.0526 58.2 39.1 58.2C40.0023 58.2 40.8136 58.3407 42.6 59.25L42.6001 48.4Z" fill="white"/>
    </symbol>
    <symbol viewBox="0 0 92 92" id="first_icon">
        <path fill-rule="evenodd" clip-rule="evenodd" d="M67.4512 49.0781V66.3733C67.4512 69.4666 65.0269 72.0017 62.0631 72.0017H29.9701C27.0063 72.0017 24.582 69.4666 24.582 66.3733V49.0781H41.2481V56.5889L46.0166 59.7224L50.7851 56.5889V49.0781H67.4512Z" fill="url(#paint0_linear_22728_12619)"/>
        <path fill-rule="evenodd" clip-rule="evenodd" d="M42.9185 49.0781V55.6866L46.0166 57.7222L49.1146 55.6866V49.0781H42.9185Z" fill="url(#paint1_linear_22728_12619)"/>
        <path fill-rule="evenodd" clip-rule="evenodd" d="M26.0732 29.1445H65.9597C67.8421 29.1445 69.3805 30.8526 69.3805 32.94V43.1931C69.3805 45.2805 67.8421 46.9886 65.9597 46.9886H50.3137H41.7192H26.0732C24.1908 46.9886 22.6523 45.2805 22.6523 43.1931V32.94C22.6523 30.8526 24.1908 29.1445 26.0732 29.1445Z" fill="url(#paint2_linear_22728_12619)"/>
        <path fill-rule="evenodd" clip-rule="evenodd" d="M37.7117 19.9551H54.3213C55.8644 19.9551 57.1272 21.2179 57.1272 22.761V27.1384H53.5697V24.5516C53.5697 23.8542 52.9996 23.2817 52.3022 23.2817H39.7308C39.0334 23.2817 38.4633 23.8542 38.4633 24.5516V27.1384H34.9058V22.761C34.9058 21.2179 36.1686 19.9551 37.7117 19.9551Z" fill="url(#paint3_linear_22728_12619)"/>
    </symbol>
    <symbol viewBox="0 0 92 92" id="third_icon">
        <path d="M74.5262 51.7273C73.8387 51.4426 73.115 51.2982 72.3751 51.2982C70.7434 51.2982 69.2361 51.9946 68.1895 53.1615L66.9695 52.6562L63.4894 51.2147C63.9833 49.5616 64.2498 47.8113 64.2498 45.9998C64.2498 44.1883 63.9831 42.4381 63.4894 40.7849L66.9695 39.3435L68.1895 38.8381C69.2361 40.0051 70.7434 40.7014 72.3751 40.7014C73.115 40.7014 73.8387 40.5571 74.5262 40.2722C77.3916 39.0852 78.7574 35.7883 77.5704 32.9227C76.6964 30.8128 74.6559 29.4493 72.3721 29.4493C71.6322 29.4493 70.9085 29.5937 70.221 29.8786C67.9627 30.814 66.6372 33.0598 66.7572 35.3722L65.5301 35.8805L62.0511 37.3215C60.361 34.208 57.7915 31.6383 54.678 29.9483L56.119 26.4694L56.6268 25.2436C56.7251 25.2487 56.8238 25.2517 56.9228 25.2517C59.2066 25.2517 61.247 23.8884 62.1211 21.7784C63.308 18.9129 61.9424 15.6159 59.0769 14.4289C58.3893 14.1444 57.6656 14 56.9258 14C54.6419 14 52.6015 15.3634 51.7274 17.4734C50.792 19.7316 51.4428 22.257 53.1628 23.8072L52.6563 25.0301L51.2148 28.5102C49.5617 28.0165 47.8114 27.7498 45.9999 27.7498C44.1884 27.7498 42.4382 28.0165 40.785 28.5102L39.3435 25.0301L38.8371 23.8072C40.557 22.257 41.2078 19.7316 40.2724 17.4732C39.3983 15.3634 37.3577 14 35.0739 14C34.3341 14 33.6103 14.1444 32.9228 14.4292C30.0574 15.6162 28.6917 18.9131 29.8787 21.7787C30.7527 23.8886 32.7932 25.2521 35.0769 25.2521C35.1759 25.2521 35.2746 25.2491 35.3729 25.244L35.8807 26.4697L37.3217 29.9487C34.2082 31.6388 31.6386 34.2083 29.9486 37.3218L26.4696 35.8808L25.2425 35.3726C25.3625 33.0602 24.037 30.8143 21.7787 29.8788C21.0912 29.5941 20.3675 29.4497 19.6276 29.4497C17.3437 29.4497 15.3033 30.8131 14.4292 32.9231C13.2423 35.7886 14.608 39.0856 17.4735 40.2726C18.161 40.5573 18.8847 40.7017 19.6246 40.7017C21.2563 40.7017 22.7636 40.0053 23.8102 38.8383L25.0302 39.3437L28.5103 40.7852C28.0164 42.4383 27.7499 44.1886 27.7499 46.0001C27.7499 47.8116 28.0166 49.5618 28.5103 51.2149L25.0301 52.6562L23.8101 53.1615C22.7635 51.9946 21.2562 51.2982 19.6245 51.2982C18.8846 51.2982 18.1608 51.4426 17.4733 51.7274C14.608 52.9144 13.2422 56.2113 14.4292 59.0769C15.3032 61.1868 17.3437 62.5503 19.6275 62.5503C20.3673 62.5503 21.0911 62.4059 21.7786 62.121C24.0368 61.1857 25.3623 58.9398 25.2423 56.6274L26.4694 56.1192L29.9484 54.6782C31.6386 57.7917 34.2081 60.3613 37.3216 62.0513L35.8806 65.5303L35.3728 66.756C35.2744 66.7509 35.1758 66.7479 35.0768 66.7479C32.7929 66.7479 30.7526 68.1113 29.8784 70.2213C28.6916 73.0868 30.0572 76.3838 32.9227 77.5708C33.6102 77.8555 34.3339 77.9999 35.0738 77.9999C37.3577 77.9999 39.3981 76.6365 40.2722 74.5265C41.2075 72.2683 40.5568 69.7429 38.8368 68.1926L39.3433 66.9698L40.7848 63.4897C42.4379 63.9834 44.1882 64.25 45.9997 64.25C47.8112 64.25 49.5614 63.9834 51.2145 63.4897L52.656 66.9698L53.1625 68.1926C51.4425 69.7429 50.7918 72.2683 51.7272 74.5266C52.6012 76.6365 54.6416 78 56.9254 78C57.6653 78 58.389 77.8556 59.0765 77.5708C61.9419 76.3838 63.3076 73.0869 62.1206 70.2213C61.2466 68.1114 59.2061 66.7479 56.9224 66.7479C56.8234 66.7479 56.7248 66.7509 56.6264 66.756L56.1186 65.5303L54.6776 62.0513C57.7911 60.3612 60.3608 57.7917 62.0508 54.6782L65.5298 56.1192L66.7569 56.6274C66.6369 58.9398 67.9624 61.1857 70.2206 62.1212C70.9081 62.4059 71.6319 62.5503 72.3717 62.5503C74.6556 62.5503 76.696 61.1869 77.5701 59.0769C78.7574 56.2113 77.3919 52.9143 74.5262 51.7273ZM45.9999 60.4998C38.0047 60.4998 31.4999 53.995 31.4999 45.9998C31.4999 38.0046 38.0047 31.4998 45.9999 31.4998C53.9952 31.4998 60.4999 38.0046 60.4999 45.9998C60.4999 53.995 53.995 60.4998 45.9999 60.4998Z" fill="black"/>
        <path d="M74.5262 51.7273C73.8387 51.4426 73.115 51.2982 72.3751 51.2982C70.7434 51.2982 69.2361 51.9946 68.1895 53.1615L66.9695 52.6562L63.4894 51.2147C63.9833 49.5616 64.2498 47.8113 64.2498 45.9998C64.2498 44.1883 63.9831 42.4381 63.4894 40.7849L66.9695 39.3435L68.1895 38.8381C69.2361 40.0051 70.7434 40.7014 72.3751 40.7014C73.115 40.7014 73.8387 40.5571 74.5262 40.2722C77.3916 39.0852 78.7574 35.7883 77.5704 32.9227C76.6964 30.8128 74.6559 29.4493 72.3721 29.4493C71.6322 29.4493 70.9085 29.5937 70.221 29.8786C67.9627 30.814 66.6372 33.0598 66.7572 35.3722L65.5301 35.8805L62.0511 37.3215C60.361 34.208 57.7915 31.6383 54.678 29.9483L56.119 26.4694L56.6268 25.2436C56.7251 25.2487 56.8238 25.2517 56.9228 25.2517C59.2066 25.2517 61.247 23.8884 62.1211 21.7784C63.308 18.9129 61.9424 15.6159 59.0769 14.4289C58.3893 14.1444 57.6656 14 56.9258 14C54.6419 14 52.6015 15.3634 51.7274 17.4734C50.792 19.7316 51.4428 22.257 53.1628 23.8072L52.6563 25.0301L51.2148 28.5102C49.5617 28.0165 47.8114 27.7498 45.9999 27.7498C44.1884 27.7498 42.4382 28.0165 40.785 28.5102L39.3435 25.0301L38.8371 23.8072C40.557 22.257 41.2078 19.7316 40.2724 17.4732C39.3983 15.3634 37.3577 14 35.0739 14C34.3341 14 33.6103 14.1444 32.9228 14.4292C30.0574 15.6162 28.6917 18.9131 29.8787 21.7787C30.7527 23.8886 32.7932 25.2521 35.0769 25.2521C35.1759 25.2521 35.2746 25.2491 35.3729 25.244L35.8807 26.4697L37.3217 29.9487C34.2082 31.6388 31.6386 34.2083 29.9486 37.3218L26.4696 35.8808L25.2425 35.3726C25.3625 33.0602 24.037 30.8143 21.7787 29.8788C21.0912 29.5941 20.3675 29.4497 19.6276 29.4497C17.3437 29.4497 15.3033 30.8131 14.4292 32.9231C13.2423 35.7886 14.608 39.0856 17.4735 40.2726C18.161 40.5573 18.8847 40.7017 19.6246 40.7017C21.2563 40.7017 22.7636 40.0053 23.8102 38.8383L25.0302 39.3437L28.5103 40.7852C28.0164 42.4383 27.7499 44.1886 27.7499 46.0001C27.7499 47.8116 28.0166 49.5618 28.5103 51.2149L25.0301 52.6562L23.8101 53.1615C22.7635 51.9946 21.2562 51.2982 19.6245 51.2982C18.8846 51.2982 18.1608 51.4426 17.4733 51.7274C14.608 52.9144 13.2422 56.2113 14.4292 59.0769C15.3032 61.1868 17.3437 62.5503 19.6275 62.5503C20.3673 62.5503 21.0911 62.4059 21.7786 62.121C24.0368 61.1857 25.3623 58.9398 25.2423 56.6274L26.4694 56.1192L29.9484 54.6782C31.6386 57.7917 34.2081 60.3613 37.3216 62.0513L35.8806 65.5303L35.3728 66.756C35.2744 66.7509 35.1758 66.7479 35.0768 66.7479C32.7929 66.7479 30.7526 68.1113 29.8784 70.2213C28.6916 73.0868 30.0572 76.3838 32.9227 77.5708C33.6102 77.8555 34.3339 77.9999 35.0738 77.9999C37.3577 77.9999 39.3981 76.6365 40.2722 74.5265C41.2075 72.2683 40.5568 69.7429 38.8368 68.1926L39.3433 66.9698L40.7848 63.4897C42.4379 63.9834 44.1882 64.25 45.9997 64.25C47.8112 64.25 49.5614 63.9834 51.2145 63.4897L52.656 66.9698L53.1625 68.1926C51.4425 69.7429 50.7918 72.2683 51.7272 74.5266C52.6012 76.6365 54.6416 78 56.9254 78C57.6653 78 58.389 77.8556 59.0765 77.5708C61.9419 76.3838 63.3076 73.0869 62.1206 70.2213C61.2466 68.1114 59.2061 66.7479 56.9224 66.7479C56.8234 66.7479 56.7248 66.7509 56.6264 66.756L56.1186 65.5303L54.6776 62.0513C57.7911 60.3612 60.3608 57.7917 62.0508 54.6782L65.5298 56.1192L66.7569 56.6274C66.6369 58.9398 67.9624 61.1857 70.2206 62.1212C70.9081 62.4059 71.6319 62.5503 72.3717 62.5503C74.6556 62.5503 76.696 61.1869 77.5701 59.0769C78.7574 56.2113 77.3919 52.9143 74.5262 51.7273ZM45.9999 60.4998C38.0047 60.4998 31.4999 53.995 31.4999 45.9998C31.4999 38.0046 38.0047 31.4998 45.9999 31.4998C53.9952 31.4998 60.4999 38.0046 60.4999 45.9998C60.4999 53.995 53.995 60.4998 45.9999 60.4998Z" fill="url(#paint0_linear_22728_12626)"/>
        <path d="M46 35.25C40.0725 35.25 35.25 40.0725 35.25 46C35.25 51.9275 40.0725 56.75 46 56.75C51.9275 56.75 56.75 51.9275 56.75 46C56.75 40.0725 51.9275 35.25 46 35.25ZM47.875 50.125H44.125V41.875H47.875V50.125Z" fill="black"/>
        <path d="M46 35.25C40.0725 35.25 35.25 40.0725 35.25 46C35.25 51.9275 40.0725 56.75 46 56.75C51.9275 56.75 56.75 51.9275 56.75 46C56.75 40.0725 51.9275 35.25 46 35.25ZM47.875 50.125H44.125V41.875H47.875V50.125Z" fill="url(#paint1_linear_22728_12626)"/>
    </symbol>
    <symbol viewBox="0 0 92 92" id="fourth_icon">
        <path d="M56.0059 70H37.0059V76H56.0059V70Z" fill="black"/>
        <path d="M56.0059 70H37.0059V76H56.0059V70Z" fill="url(#paint0_linear_22728_12633)"/>
        <path d="M29.1728 16.4517L15.7378 29.8867L19.2733 33.4223L32.7084 19.9872L29.1728 16.4517Z" fill="black"/>
        <path d="M29.1728 16.4517L15.7378 29.8867L19.2733 33.4223L32.7084 19.9872L29.1728 16.4517Z" fill="url(#paint1_linear_22728_12633)"/>
        <path d="M63.1127 16.3199L59.5771 19.8555L73.0122 33.2905L76.5477 29.755L63.1127 16.3199Z" fill="black"/>
        <path d="M63.1127 16.3199L59.5771 19.8555L73.0122 33.2905L76.5477 29.755L63.1127 16.3199Z" fill="url(#paint2_linear_22728_12633)"/>
        <path d="M58.5564 23.7084L55.8651 23.5944C55.089 23.4848 54.2981 23.5571 53.5548 23.8056C52.8115 24.054 52.1361 24.4718 51.5819 25.026L46.0775 30.5305L40.3239 24.7769C39.8244 24.2888 39.2011 23.9463 38.5214 23.7861C37.8416 23.626 37.131 23.6543 36.4661 23.868C35.8388 24.0587 35.1715 24.0755 34.5355 23.9164C33.8995 23.7573 33.3186 23.4284 32.8551 22.9648L32.0012 22.1109L21.3945 32.7175L23.1225 34.4455L23.0085 37.1368C22.8989 37.9128 22.9712 38.7037 23.2197 39.447C23.4681 40.1903 23.8859 40.8657 24.4401 41.4199L34.0525 51.0324C34.181 49.7705 34.7856 48.6051 35.7432 47.7734L32.7482 44.7785L33.4553 44.0714L36.5836 47.1996C37.027 46.9472 37.5068 46.7649 38.0059 46.6591V42.9651L36.2838 41.243L36.9908 40.5358L38.0059 41.5509V36.201C37.9948 35.3168 38.3086 34.4592 38.8879 33.791C39.4672 33.1228 40.2716 32.6904 41.1485 32.576C41.4792 32.544 41.8128 32.559 42.1393 32.6208L40.9098 31.3914L41.6169 30.6843L43.4131 32.4804C43.7312 31.864 44.2233 31.3547 44.8283 31.0154C45.4333 30.6762 46.1246 30.5221 46.8165 30.5721C47.6513 30.6697 48.4258 31.0562 49.0057 31.6647C49.5855 32.2733 49.9342 33.0655 49.9913 33.9041C50.5596 33.634 51.1894 33.5194 51.8165 33.5721C52.7075 33.6788 53.5273 34.1126 54.1166 34.7895C54.7059 35.4663 55.0229 36.3379 55.0059 37.2352V40.6591C55.916 40.8491 56.7551 41.289 57.4292 41.9293C58.1032 42.5696 58.5855 43.3851 58.822 44.2842L61.6105 41.4957L62.3176 42.2029L59.0023 45.5181C59.0024 45.5319 59.0059 45.5447 59.0059 45.5585V48.8785C59.9043 48.7845 60.7437 48.3864 61.3848 47.7501L68.225 40.9099C68.7131 40.4104 69.0556 39.7871 69.2158 39.1073C69.3759 38.4276 69.3476 37.7169 69.1339 37.0521C68.9431 36.4248 68.9264 35.7575 69.0855 35.1215C69.2445 34.4854 69.5735 33.9046 70.0371 33.441L70.8909 32.5871L60.2844 21.9805L58.5564 23.7084Z" fill="black"/>
        <path d="M58.5564 23.7084L55.8651 23.5944C55.089 23.4848 54.2981 23.5571 53.5548 23.8056C52.8115 24.054 52.1361 24.4718 51.5819 25.026L46.0775 30.5305L40.3239 24.7769C39.8244 24.2888 39.2011 23.9463 38.5214 23.7861C37.8416 23.626 37.131 23.6543 36.4661 23.868C35.8388 24.0587 35.1715 24.0755 34.5355 23.9164C33.8995 23.7573 33.3186 23.4284 32.8551 22.9648L32.0012 22.1109L21.3945 32.7175L23.1225 34.4455L23.0085 37.1368C22.8989 37.9128 22.9712 38.7037 23.2197 39.447C23.4681 40.1903 23.8859 40.8657 24.4401 41.4199L34.0525 51.0324C34.181 49.7705 34.7856 48.6051 35.7432 47.7734L32.7482 44.7785L33.4553 44.0714L36.5836 47.1996C37.027 46.9472 37.5068 46.7649 38.0059 46.6591V42.9651L36.2838 41.243L36.9908 40.5358L38.0059 41.5509V36.201C37.9948 35.3168 38.3086 34.4592 38.8879 33.791C39.4672 33.1228 40.2716 32.6904 41.1485 32.576C41.4792 32.544 41.8128 32.559 42.1393 32.6208L40.9098 31.3914L41.6169 30.6843L43.4131 32.4804C43.7312 31.864 44.2233 31.3547 44.8283 31.0154C45.4333 30.6762 46.1246 30.5221 46.8165 30.5721C47.6513 30.6697 48.4258 31.0562 49.0057 31.6647C49.5855 32.2733 49.9342 33.0655 49.9913 33.9041C50.5596 33.634 51.1894 33.5194 51.8165 33.5721C52.7075 33.6788 53.5273 34.1126 54.1166 34.7895C54.7059 35.4663 55.0229 36.3379 55.0059 37.2352V40.6591C55.916 40.8491 56.7551 41.289 57.4292 41.9293C58.1032 42.5696 58.5855 43.3851 58.822 44.2842L61.6105 41.4957L62.3176 42.2029L59.0023 45.5181C59.0024 45.5319 59.0059 45.5447 59.0059 45.5585V48.8785C59.9043 48.7845 60.7437 48.3864 61.3848 47.7501L68.225 40.9099C68.7131 40.4104 69.0556 39.7871 69.2158 39.1073C69.3759 38.4276 69.3476 37.7169 69.1339 37.0521C68.9431 36.4248 68.9264 35.7575 69.0855 35.1215C69.2445 34.4854 69.5735 33.9046 70.0371 33.441L70.8909 32.5871L60.2844 21.9805L58.5564 23.7084Z" fill="url(#paint3_linear_22728_12633)"/>
        <path d="M43.8802 35.6901C43.8042 35.0405 43.4757 34.4468 42.9657 34.0373C42.4557 33.6278 41.8051 33.4353 41.1544 33.5015C40.5232 33.5886 39.946 33.9046 39.5326 34.3894C39.1192 34.8742 38.8984 35.4941 38.9121 36.1311V47.4885C37.8512 47.4885 36.8338 47.9099 36.0837 48.66C35.3335 49.4102 34.9121 50.4276 34.9121 51.4885V61.1619C34.9202 61.8603 35.1187 62.5432 35.4861 63.1371C35.8536 63.7311 36.376 64.2135 36.9973 64.5325C37.5757 64.8412 38.0594 65.3012 38.3967 65.8634C38.734 66.4256 38.9121 67.0689 38.9121 67.7245V68.9321H53.9121V66.4885L55.8958 64.6661C56.522 64.1948 57.0301 63.5844 57.38 62.8831C57.73 62.1818 57.9121 61.4088 57.9121 60.6251V45.4885C57.9121 44.4276 57.4907 43.4102 56.7405 42.66C55.9904 41.9099 54.973 41.4885 53.9121 41.4885V37.1659C53.9291 36.5187 53.706 35.888 53.2857 35.3955C52.8655 34.903 52.2778 34.5834 51.636 34.4983C51.006 34.4426 50.3785 34.6285 49.8804 35.0183C49.3824 35.408 49.0511 35.9725 48.9537 36.5974H49.4121V52.0407H48.4121V36.5974H48.9121V34.1659C48.9291 33.5187 48.706 32.888 48.2857 32.3955C47.8655 31.903 47.2778 31.5834 46.636 31.4983C46.2902 31.4673 45.9417 31.5086 45.6128 31.6196C45.2838 31.7306 44.9816 31.909 44.7254 32.1432C44.4691 32.3775 44.2645 32.6625 44.1245 32.9802C43.9845 33.2979 43.9121 33.6413 43.9121 33.9885V35.6901H44.4121V51.1335H43.4121V35.6901H43.8802ZM39.3113 56.0407H38.3113V48.0407H39.3113V56.0407ZM53.4121 41.799H54.4121V52.2423H53.4121V41.799Z" fill="black"/>
        <path d="M43.8802 35.6901C43.8042 35.0405 43.4757 34.4468 42.9657 34.0373C42.4557 33.6278 41.8051 33.4353 41.1544 33.5015C40.5232 33.5886 39.946 33.9046 39.5326 34.3894C39.1192 34.8742 38.8984 35.4941 38.9121 36.1311V47.4885C37.8512 47.4885 36.8338 47.9099 36.0837 48.66C35.3335 49.4102 34.9121 50.4276 34.9121 51.4885V61.1619C34.9202 61.8603 35.1187 62.5432 35.4861 63.1371C35.8536 63.7311 36.376 64.2135 36.9973 64.5325C37.5757 64.8412 38.0594 65.3012 38.3967 65.8634C38.734 66.4256 38.9121 67.0689 38.9121 67.7245V68.9321H53.9121V66.4885L55.8958 64.6661C56.522 64.1948 57.0301 63.5844 57.38 62.8831C57.73 62.1818 57.9121 61.4088 57.9121 60.6251V45.4885C57.9121 44.4276 57.4907 43.4102 56.7405 42.66C55.9904 41.9099 54.973 41.4885 53.9121 41.4885V37.1659C53.9291 36.5187 53.706 35.888 53.2857 35.3955C52.8655 34.903 52.2778 34.5834 51.636 34.4983C51.006 34.4426 50.3785 34.6285 49.8804 35.0183C49.3824 35.408 49.0511 35.9725 48.9537 36.5974H49.4121V52.0407H48.4121V36.5974H48.9121V34.1659C48.9291 33.5187 48.706 32.888 48.2857 32.3955C47.8655 31.903 47.2778 31.5834 46.636 31.4983C46.2902 31.4673 45.9417 31.5086 45.6128 31.6196C45.2838 31.7306 44.9816 31.909 44.7254 32.1432C44.4691 32.3775 44.2645 32.6625 44.1245 32.9802C43.9845 33.2979 43.9121 33.6413 43.9121 33.9885V35.6901H44.4121V51.1335H43.4121V35.6901H43.8802ZM39.3113 56.0407H38.3113V48.0407H39.3113V56.0407ZM53.4121 41.799H54.4121V52.2423H53.4121V41.799Z" fill="url(#paint4_linear_22728_12633)"/>
    </symbol>
    <symbol viewBox="0 0 92 92" id="fiveth_icon">
        <path d="M55.2317 51.6961C57.5839 51.6961 59.9096 52.2844 61.9577 53.3974C62.3296 53.5979 62.6709 53.8368 63.0194 54.0667C66.3807 47.4869 68.1545 40.5278 68.1545 33.7388C68.1545 33.3573 68.1545 32.9634 68.1423 32.5696C68.1177 32.0158 67.7238 31.5358 67.1699 31.4127C59.7361 29.7881 53.0038 25.7634 47.7115 19.7819L46.9238 18.8834C46.6899 18.6127 46.3577 18.465 46.0007 18.465C45.6192 18.4158 45.3238 18.6004 45.0899 18.8589L43.8838 20.1881C38.8623 25.7142 32.5361 29.5296 25.5946 31.2281L24.7946 31.425C24.253 31.5481 23.8715 32.0281 23.8592 32.5819C23.4161 49.8865 33.6315 62.3296 38.0377 66.8834C39.2306 68.1082 40.5606 69.3256 41.8253 70.3319C41.3509 68.9011 41.0779 67.3957 41.0779 65.8499C41.0779 58.0452 47.427 51.6961 55.2317 51.6961Z" fill="url(#paint0_linear_22728_12640)"/>
        <path d="M60.7822 55.5593C59.0837 54.6363 57.1637 54.1562 55.2314 54.1562C48.7822 54.1562 43.5391 59.3993 43.5391 65.8486C43.5391 68.027 44.1299 70.1562 45.2622 71.9778C47.416 75.4609 51.133 77.5409 55.2314 77.5409C61.6683 77.5409 66.9237 72.2978 66.9237 65.8486C66.9237 61.5409 64.5729 57.6024 60.7822 55.5593ZM61.2196 64.2918L52.0747 71.4084L48.9527 66.5249C48.5862 65.9522 48.7538 65.1914 49.3265 64.8254C49.8999 64.4588 50.6613 64.6277 51.0261 65.1992L52.6937 67.8074L59.7076 62.3495C60.243 61.9318 61.0171 62.0273 61.4347 62.5646C61.8524 63.1013 61.7556 63.8747 61.2196 64.2918Z" fill="url(#paint1_linear_22728_12640)"/>
    </symbol>
    <symbol viewBox="0 0 92 92" id="sixth_icon">
        <path d="M54.3522 34.389C55.0842 35.121 56.2702 35.123 57.0022 34.389L59.6102 31.781C60.3412 31.049 60.3392 29.863 59.6102 29.13L53.0272 22.549C52.2972 21.817 51.1112 21.817 50.3792 22.549L47.7702 25.157C47.0402 25.889 47.0402 27.075 47.7702 27.805L54.3522 34.389Z" fill="url(#paint0_linear_22728_12647)"/>
        <path d="M38.766 50.2652C39.497 50.9942 40.683 50.9942 41.414 50.2652L44.023 47.6553C44.755 46.9253 44.755 45.7383 44.023 45.0063L37.44 38.4233C36.709 37.6933 35.523 37.6913 34.791 38.4233L32.183 41.0312C31.451 41.7632 31.453 42.9492 32.183 43.6812L38.766 50.2652Z" fill="url(#paint1_linear_22728_12647)"/>
        <path d="M68.6481 50.8912L66.0011 48.2412C65.2671 47.5112 64.0841 47.5112 63.3531 48.2412L62.1921 49.4012L50.9871 38.1942L53.4141 35.7662L46.6811 29.0352L44.2531 31.4632L41.1611 34.5532L38.7871 36.9272L45.5191 43.6602L47.8961 41.2872L59.0991 52.4922L58.0511 53.5412C57.3191 54.2702 57.3171 55.4572 58.0511 56.1892L60.6981 58.8372C61.4321 59.5712 62.6171 59.5712 63.3481 58.8372L68.6471 53.5402C69.3801 52.8072 69.3801 51.6232 68.6481 50.8912Z" fill="url(#paint2_linear_22728_12647)"/>
        <path d="M49.077 58.9425C49.077 57.7435 48.105 56.7695 46.904 56.7695H29.936C28.736 56.7695 27.763 57.7435 27.763 58.9425V62.4695H23V69.8585H53.558V62.4695H49.077V58.9425Z" fill="url(#paint3_linear_22728_12647)"/>
    </symbol>
    <symbol viewBox="0 0 217 48" id="first">
        <path d="M0 12C0 5.37258 5.37258 0 12 0H217V48H0V12Z" fill="url(#pattern0)"/>
    </symbol>
    <symbol viewBox="0 0 12 26" id="slash">
        <path clip-rule="evenodd" d="M8.72827 0H11.9505L3.55574 26H0.333496L8.72827 0Z" fill="#F0145A"/>
    </symbol>
</svg>